<svg xmlns="http://www.w3.org/2000/svg" version="1.1" xmlns:xlink="http://www.w3.org/1999/xlink" xmlns:svgjs="http://svgjs.dev/svgjs" width="2000" height="202" viewBox="0 0 2000 202"><g transform="matrix(1,0,0,1,-1.2121212121213603,-0.5884347826086866)"><svg viewBox="0 0 396 40" data-background-color="#ffffff" preserveAspectRatio="xMidYMid meet" height="202" width="2000" xmlns="http://www.w3.org/2000/svg" xmlns:xlink="http://www.w3.org/1999/xlink"><g id="tight-bounds" transform="matrix(1,0,0,1,0.24000000000003752,0.11652173913043384)"><svg viewBox="0 0 395.5199999999999 39.766956521739125" height="39.766956521739125" width="395.5199999999999"><g><svg viewBox="0 0 395.52000000000004 39.76695652173913" height="39.766956521739125" width="395.5199999999999"><g><svg viewBox="0 0 395.52000000000004 39.76695652173913" height="39.76695652173913" width="395.52000000000004"><g id="textblocktransform"><svg viewBox="0 0 395.52000000000004 39.76695652173913" height="39.76695652173913" width="395.52000000000004" id="textblock"><g><svg viewBox="0 0 395.52000000000004 39.76695652173913" height="39.76695652173913" width="395.52000000000004"><g transform="matrix(1,0,0,1,0,0)"><svg width="395.52000000000004" viewBox="-0.45 -36.5 367.97999999999996 37" height="39.76695652173913" data-palette-color="#3ba0f3"><path d="M22.2-2.4L26.3-3.45 23.5-11.95 10.5-11.95 7.6-3.45 11.75-2.4 11.75 0-0.45 0-0.45-2.4 3.65-3.45 15.55-36.5 20.7-36.5 32.45-3.45 36.45-2.4 36.45 0 22.2 0 22.2-2.4ZM17.3-31.35L17.1-31.35 11.6-15.1 22.45-15.1 17.3-31.35ZM48.15-32.85L48.15-17.15 53.85-17.15Q55.25-17.15 56.47-17.57 57.7-18 58.4-18.7L58.4-18.7Q59.4-19.75 60.1-21.35 60.8-22.95 60.8-24.9L60.8-24.9Q60.8-26.7 60.12-28.28 59.45-29.85 58.4-31.05L58.4-31.05Q57.6-31.9 56.35-32.38 55.1-32.85 53.65-32.85L53.65-32.85 48.15-32.85ZM55.45-14L55.45-14 48.15-14 48.15-3.45 52.9-2.4 52.9 0 38.45 0 38.45-2.4 42.65-3.45 42.65-32.55 38.45-33.6 38.45-36 55.5-36Q57.85-36 59.8-35.38 61.75-34.75 63-33.6L63-33.6Q64.75-32.05 65.77-29.88 66.8-27.7 66.8-25.3L66.8-25.3Q66.8-22.85 65.72-20.45 64.65-18.05 62.9-16.5L62.9-16.5Q61.6-15.25 59.65-14.63 57.7-14 55.45-14ZM79.65-32.85L79.65-17.15 85.35-17.15Q86.75-17.15 87.97-17.57 89.2-18 89.9-18.7L89.9-18.7Q90.9-19.75 91.6-21.35 92.3-22.95 92.3-24.9L92.3-24.9Q92.3-26.7 91.62-28.28 90.95-29.85 89.9-31.05L89.9-31.05Q89.1-31.9 87.85-32.38 86.6-32.85 85.15-32.85L85.15-32.85 79.65-32.85ZM86.95-14L86.95-14 79.65-14 79.65-3.45 84.4-2.4 84.4 0 69.95 0 69.95-2.4 74.15-3.45 74.15-32.55 69.95-33.6 69.95-36 87-36Q89.35-36 91.3-35.38 93.25-34.75 94.5-33.6L94.5-33.6Q96.25-32.05 97.27-29.88 98.3-27.7 98.3-25.3L98.3-25.3Q98.3-22.85 97.22-20.45 96.15-18.05 94.4-16.5L94.4-16.5Q93.1-15.25 91.15-14.63 89.2-14 86.95-14ZM135.34-18.4L135.34-18.4Q135.34-14.1 134.04-10.28 132.74-6.45 130.34-3.85L130.34-3.85Q128.24-1.65 125.32-0.58 122.39 0.5 118.49 0.5L118.49 0.5Q114.59 0.5 111.64-0.55 108.69-1.6 106.74-3.7L106.74-3.7Q104.49-6.05 103.22-9.68 101.94-13.3 101.94-17.6L101.94-17.6Q101.94-21.95 103.27-25.78 104.59-29.6 106.94-32.15L106.94-32.15Q109.04-34.4 111.87-35.45 114.69-36.5 118.64-36.5L118.64-36.5Q122.49-36.5 125.42-35.48 128.34-34.45 130.49-32.3L130.49-32.3Q132.89-29.85 134.12-26.18 135.34-22.5 135.34-18.4ZM108.19-18.6L108.19-18.6Q108.19-14.5 108.89-11.35 109.59-8.2 110.89-6.2L110.89-6.2Q112.14-4.35 114.07-3.43 115.99-2.5 118.79-2.5L118.79-2.5Q123.89-2.5 126.34-5.8L126.34-5.8Q127.69-7.6 128.39-10.6 129.09-13.6 129.09-17.7L129.09-17.7Q129.09-21.8 128.37-24.88 127.64-27.95 126.34-29.85L126.34-29.85Q125.04-31.75 123.07-32.65 121.09-33.55 118.44-33.55L118.44-33.55Q115.89-33.55 114.04-32.7 112.19-31.85 110.94-30.25L110.94-30.25Q108.19-26.6 108.19-18.6ZM154.19-33.6L149.49-32.55 149.49-3.45 154.19-2.4 154.19 0 139.29 0 139.29-2.4 143.99-3.45 143.99-32.55 139.29-33.6 139.29-36 154.19-36 154.19-33.6ZM158.49-2.4L162.69-3.45 162.69-32.55 158.49-33.6 158.49-36 168.69-36 186.74-8.75 186.74-32.55 182.54-33.6 182.54-36 194.69-36 194.69-33.6 190.49-32.55 190.49 0 186.24 0 166.44-29.55 166.44-3.45 170.64-2.4 170.64 0 158.49 0 158.49-2.4ZM197.94-25.25L197.94-36 228.24-36 228.24-25.25 225.44-25.25 223.84-32.75 215.84-32.75 215.84-3.6 221.14-2.4 221.14 0 205.04 0 205.04-2.4 210.34-3.6 210.34-32.75 202.29-32.75 200.74-25.25 197.94-25.25ZM248.28-33.55L248.28-33.55Q246.03-33.55 244.31-32.77 242.58-32 241.43-30.45L241.43-30.45Q239.98-28.5 239.11-25.4 238.23-22.3 238.23-18.6L238.23-18.6Q238.23-15.05 238.98-11.95 239.73-8.85 241.08-6.75L241.08-6.75Q242.33-4.8 244.23-3.88 246.13-2.95 248.88-2.95L248.88-2.95Q257.68-2.95 259.13-11.4L259.13-11.4 262.38-11.4Q260.03 0.5 248.18 0.5L248.18 0.5Q241.28 0.5 237.18-3.5L237.18-3.5Q234.73-5.9 233.43-9.55 232.13-13.2 232.13-17.65L232.13-17.65Q232.13-22.7 233.78-26.8 235.43-30.9 238.43-33.35L238.43-33.35Q242.23-36.5 248.48-36.5L248.48-36.5Q251.58-36.5 253.53-35.7 255.48-34.9 257.38-32.85L257.38-32.85 258.38-36 261.63-36 261.63-24.7 258.08-24.7Q257.38-29.1 254.88-31.33 252.38-33.55 248.28-33.55ZM286.28-2.4L290.38-3.45 287.58-11.95 274.58-11.95 271.68-3.45 275.83-2.4 275.83 0 263.63 0 263.63-2.4 267.73-3.45 279.63-36.5 284.78-36.5 296.53-3.45 300.53-2.4 300.53 0 286.28 0 286.28-2.4ZM281.38-31.35L281.18-31.35 275.68-15.1 286.53-15.1 281.38-31.35ZM327.78-19.1L327.78-19.1Q326.88-18.4 325.7-17.85 324.53-17.3 322.78-16.95L322.78-16.95Q323.13-16.55 323.68-15.88 324.23-15.2 324.73-14.35L324.73-14.35 331.23-3.35 335.68-2.4 335.68 0 324.88 0 324.88-2.4 317.88-16 312.23-16 312.23-3.45 316.98-2.4 316.98 0 302.53 0 302.53-2.4 306.73-3.45 306.73-32.55 302.53-33.6 302.53-36 320.23-36Q322.63-36 324.43-35.55 326.23-35.1 327.68-34.1L327.68-34.1Q329.48-32.9 330.53-30.8 331.58-28.7 331.58-26.6L331.58-26.6Q331.58-24.5 330.55-22.48 329.53-20.45 327.78-19.1ZM312.23-32.85L312.23-19.15 318.88-19.15Q321.63-19.15 323.43-20.7L323.43-20.7Q324.43-21.6 325-23.1 325.58-24.6 325.58-26.3L325.58-26.3Q325.58-27.95 324.98-29.33 324.38-30.7 323.38-31.55L323.38-31.55Q322.53-32.25 321.4-32.55 320.28-32.85 318.68-32.85L318.68-32.85 312.23-32.85ZM359.73-25.1L359.73-11.9 356.68-11.9 355.78-16.85 347.98-16.85 347.98-3.25 362.63-3.25 364.13-11.15 367.53-11.15 367.53 0 337.78 0 337.78-2.4 342.48-3.45 342.48-32.55 337.78-33.6 337.78-36 366.43-36 366.43-25.4 363.33-25.4 361.78-32.85 347.98-32.85 347.98-20.1 355.78-20.1 356.68-25.1 359.73-25.1Z" opacity="1" transform="matrix(1,0,0,1,0,0)" fill="#3ba0f3" class="wordmark-text-0" data-fill-palette-color="primary" id="text-0"></path></svg></g></svg></g></svg></g></svg></g><g></g></svg></g><defs></defs></svg><rect width="395.5199999999999" height="39.766956521739125" fill="none" stroke="none" visibility="hidden"></rect></g></svg></g></svg>